<?xml version="1.0" encoding="UTF-8" standalone="no"?>
<svg viewBox="0 0 297 54" version="1.1" xmlns="http://www.w3.org/2000/svg" xmlns:xlink="http://www.w3.org/1999/xlink">
    <g stroke="none" stroke-width="1" fill="none" fill-rule="evenodd">
        <g>
            <g>
                <path d="M0.0085106383,2.16595745 L30.3914894,2.16595745 L30.3914894,10.5914894 L11.293617,10.5914894 L11.293617,15.4425532 L27.6340426,15.4425532 L27.6340426,23.5106383 L11.293617,23.5106383 L11.293617,28.8723404 L30.7489362,28.8723404 L30.7489362,37.2978723 L0.0085106383,37.2978723 L0.0085106383,2.16595745 Z M59.5489362,11.7914894 C62.1361831,13.1702197 63.4297872,15.4084951 63.4297872,18.506383 L63.4297872,29.0255319 C63.4297872,29.6042582 63.5659561,30.0808492 63.8382979,30.4553191 C64.1106397,30.8297891 64.5191462,31.0170213 65.0638298,31.0170213 L66.9021277,31.0170213 L66.9021277,36.8893617 C66.7999995,36.9574471 66.5361723,37.0680843 66.1106383,37.2212766 C65.6851043,37.3744689 65.080855,37.5276588 64.2978723,37.6808511 C63.5148897,37.8340433 62.6127711,37.9106383 61.5914894,37.9106383 C59.6170114,37.9106383 57.9914957,37.6127689 56.7148936,37.0170213 C55.4382915,36.4212736 54.5617045,35.59575 54.0851064,34.5404255 C52.7914829,35.5617072 51.3446889,36.3787203 49.7446809,36.9914894 C48.1446729,37.6042584 46.2723511,37.9106383 44.1276596,37.9106383 C37.795713,37.9106383 34.6297872,35.3915146 34.6297872,30.3531915 C34.6297872,27.7319018 35.3361631,25.7319218 36.7489362,24.3531915 C38.1617092,22.9744612 40.1957314,22.0297898 42.8510638,21.5191489 C45.5063963,21.0085081 48.978702,20.7531915 53.2680851,20.7531915 L53.2680851,19.4255319 C53.2680851,18.3702075 52.9021313,17.5702155 52.1702128,17.0255319 C51.4382942,16.4808483 50.4936228,16.2085106 49.3361702,16.2085106 C48.2808458,16.2085106 47.3702166,16.3957428 46.6042553,16.7702128 C45.838294,17.1446827 45.4553191,17.7404214 45.4553191,18.5574468 L45.4553191,18.7617021 L35.4468085,18.7617021 C35.4127658,18.5914885 35.3957447,18.353193 35.3957447,18.0468085 C35.3957447,15.4936043 36.6127538,13.4680926 39.0468085,11.9702128 C41.4808632,10.4723329 44.9616795,9.72340426 49.4893617,9.72340426 C53.6085312,9.72340426 56.9616892,10.4127591 59.5489362,11.7914894 Z M46.8595745,26.4978723 C45.4808442,27.1276627 44.7914894,27.9702075 44.7914894,29.0255319 C44.7914894,30.7276681 45.9489246,31.5787234 48.2638298,31.5787234 C49.591496,31.5787234 50.7574418,31.2212802 51.7617021,30.506383 C52.7659625,29.7914858 53.2680851,28.9063883 53.2680851,27.8510638 L53.2680851,25.5531915 C50.3744536,25.5531915 48.2383048,25.868082 46.8595745,26.4978723 Z M92.2042553,11.8425532 C94.7063955,13.2553262 95.9574468,15.4425384 95.9574468,18.4042553 L86.5106383,18.4042553 C86.5106383,17.4170163 86.0680895,16.719151 85.1829787,16.3106383 C84.5702097,15.9702111 83.8042599,15.8 82.8851064,15.8 C80.4340303,15.8 79.2085106,16.3787176 79.2085106,17.5361702 C79.2085106,18.182982 79.6340383,18.6425518 80.4851064,18.9148936 C81.3361745,19.1872354 82.7319052,19.4765942 84.6723404,19.7829787 C87.0553311,20.123406 89.0468005,20.523402 90.6468085,20.9829787 C92.2468165,21.4425555 93.6425472,22.2595686 94.8340426,23.4340426 C96.0255379,24.6085165 96.6212766,26.2510533 96.6212766,28.3617021 C96.6212766,31.8000172 95.3361831,34.2510565 92.7659574,35.7148936 C90.1957318,37.1787307 86.8340633,37.9106383 82.6808511,37.9106383 C80.2978604,37.9106383 78.0510744,37.5787267 75.9404255,36.9148936 C73.8297767,36.2510605 72.1106449,35.2212836 70.7829787,33.8255319 C69.4553125,32.4297803 68.7914894,30.6595852 68.7914894,28.5148936 L78.2382979,28.5148936 L78.2382979,28.7191489 C78.2723406,29.8766015 78.7574421,30.6851041 79.693617,31.1446809 C80.6297919,31.6042576 81.6255266,31.8340426 82.6808511,31.8340426 C85.5063971,31.8340426 86.9191489,31.1702194 86.9191489,29.8425532 C86.9191489,29.1616987 86.4766002,28.6680866 85.5914894,28.3617021 C84.7063786,28.0553176 83.2595845,27.7319166 81.2510638,27.3914894 C78.8340305,26.9829767 76.8510716,26.5404279 75.3021277,26.0638298 C73.7531837,25.5872317 72.4000058,24.7787291 71.2425532,23.6382979 C70.0851006,22.4978666 69.506383,20.9063932 69.506383,18.8638298 C69.506383,15.5616856 70.7574343,13.2127729 73.2595745,11.8170213 C75.7617146,10.4212696 79.0212565,9.72340426 83.0382979,9.72340426 C86.6468266,9.72340426 89.7021151,10.4297802 92.2042553,11.8425532 Z M114.825532,45.0851064 C112.79999,47.042563 109.965976,48.0212766 106.323404,48.0212766 C104.110627,48.0212766 102.1532,47.7148967 100.451064,47.1021277 L100.451064,41.0255319 L104.53617,41.0255319 C107.089374,41.0255319 108.604253,39.7829911 109.080851,37.2978723 L98.3574468,10.3361702 L109.285106,10.3361702 L114.442553,28.2595745 L114.8,28.2595745 L119.548936,10.3361702 L129.557447,10.3361702 L119.957447,36.4808511 C118.561695,40.2595934 116.851074,43.1276498 114.825532,45.0851064 Z" id="Easy" fill="#FFFFFF"></path>
                <path d="M134.042553,2.16595745 L145.32766,2.16595745 L145.32766,28.3106383 L163.353191,28.3106383 L163.353191,37.2978723 L134.042553,37.2978723 L134.042553,2.16595745 Z M167.744681,7.17021277 L167.744681,0.276595745 L177.906383,0.276595745 L177.906383,7.17021277 L167.744681,7.17021277 Z M167.744681,37.2978723 L167.744681,10.3361702 L177.906383,10.3361702 L177.906383,37.2978723 L167.744681,37.2978723 Z M191.540426,37.2978723 L181.32766,10.3361702 L192.255319,10.3361702 L197.208511,27.1361702 L197.565957,27.1361702 L202.519149,10.3361702 L212.52766,10.3361702 L202.212766,37.2978723 L191.540426,37.2978723 Z M215.948936,7.17021277 L215.948936,0.276595745 L226.110638,0.276595745 L226.110638,7.17021277 L215.948936,7.17021277 Z M215.948936,37.2978723 L215.948936,10.3361702 L226.110638,10.3361702 L226.110638,37.2978723 L215.948936,37.2978723 Z M258.229787,12.3276596 C259.795753,14.0638385 260.578723,16.5659411 260.578723,19.8340426 L260.578723,37.2978723 L250.417021,37.2978723 L250.417021,21.0595745 C250.417021,19.9021219 250.119152,18.9744716 249.523404,18.2765957 C248.927657,17.5787199 248.085112,17.2297872 246.995745,17.2297872 C245.736164,17.2297872 244.714898,17.6382938 243.931915,18.4553191 C243.148932,19.2723445 242.757447,20.2765898 242.757447,21.4680851 L242.757447,37.2978723 L232.595745,37.2978723 L232.595745,10.3361702 L240.919149,10.3361702 L241.582979,14.4212766 C242.638303,12.9914822 244.025523,11.8510681 245.744681,11 C247.463838,10.1489319 249.276586,9.72340426 251.182979,9.72340426 C254.314909,9.72340426 256.663822,10.5914807 258.229787,12.3276596 Z M295.429787,10.6925595 C294.391484,11.9591359 292.834053,12.8994589 290.757447,13.5135565 C291.744686,14.3579408 292.519146,15.3462394 293.080851,16.4784819 C293.642556,17.6107245 293.923404,18.8101159 293.923404,20.0766923 C293.923404,23.300705 292.842564,25.7378685 290.680851,27.3882559 C288.519138,29.0386434 285.821293,29.8638247 282.587234,29.8638247 L278.706383,29.8638247 C276.561691,29.8638247 275.489362,30.4203424 275.489362,31.5333943 C275.489362,32.0707298 275.727657,32.5025107 276.204255,32.8287501 C276.680853,33.1549895 277.514888,33.3181067 278.706383,33.3181067 L287.897872,33.3181067 C290.893632,33.3181067 293.157439,34.2008588 294.689362,35.9663896 C296.221284,37.7319203 296.987234,40.0923228 296.987234,43.0476677 C296.987234,45.2353906 296.476601,47.1160364 295.455319,48.6896617 C294.434037,50.2632869 293.055328,51.4530832 291.319149,52.2590864 C289.58297,53.0650896 287.693627,53.4680851 285.651064,53.4680851 L270.638298,53.4680851 C269.41276,53.4680851 268.280856,53.1418506 267.242553,52.4893719 C266.20425,51.8368931 265.378726,50.9445459 264.765957,49.8123033 C264.153188,48.6800608 263.846809,47.4230985 263.846809,46.0413788 C263.846809,44.5445158 264.255315,43.1916022 265.07234,41.9825974 C265.889366,40.7735927 266.910632,39.8620551 268.13617,39.2479575 C267.319145,38.5954787 266.672343,37.8086779 266.195745,36.8875315 C265.719147,35.966385 265.480851,34.9684913 265.480851,33.8938204 C265.480851,32.3969574 265.974463,31.0440438 266.961702,29.835039 C267.948941,28.6260343 269.174461,27.8104481 270.638298,27.3882559 C269.310632,26.4287284 268.255323,25.3252882 267.47234,24.0779023 C266.689358,22.8305165 266.297872,21.5159834 266.297872,20.1342637 C266.297872,16.6032022 267.565945,14.0796825 270.102128,12.563629 C272.638311,11.0475754 275.999979,10.28956 280.187234,10.28956 C282.025541,10.28956 283.506377,10.4047016 284.629787,10.6349882 C286.297881,9.44517398 287.378721,8.36092408 287.87234,7.38220595 C288.36596,6.40348782 288.612766,5.7030432 288.612766,5.28085106 L296.987234,5.28085106 C296.987234,7.62209835 296.46809,9.42598314 295.429787,10.6925595 Z M277.32766,15.9021277 C276.612762,16.480854 276.255319,17.3148882 276.255319,18.4042553 C276.255319,19.5276652 276.587231,20.37021 277.251064,20.9319149 C277.914897,21.4936198 278.859568,21.7744681 280.085106,21.7744681 C281.310644,21.7744681 282.272337,21.4936198 282.970213,20.9319149 C283.668089,20.37021 284.017021,19.5276652 284.017021,18.4042553 C284.017021,17.2808454 283.668089,16.4383007 282.970213,15.8765957 C282.272337,15.3148908 281.310644,15.0340426 280.085106,15.0340426 C278.961697,15.0340426 278.042557,15.3234014 277.32766,15.9021277 Z M274.238298,42.1914894 C273.744678,42.6170234 273.497872,43.2212727 273.497872,44.0042553 C273.497872,44.787238 273.753189,45.4170189 274.26383,45.893617 C274.774471,46.3702151 275.404252,46.6085106 276.153191,46.6085106 L284.119149,46.6085106 C284.868089,46.6085106 285.50638,46.3787257 286.034043,45.9191489 C286.561705,45.4595722 286.825532,44.8383018 286.825532,44.0553191 C286.825532,43.2723365 286.570215,42.6595767 286.059574,42.2170213 C285.548934,41.7744659 284.902132,41.5531915 284.119149,41.5531915 L276.153191,41.5531915 C275.370209,41.5531915 274.731917,41.7659553 274.238298,42.1914894 Z" id="Living" fill="#2C3E50"></path>
                <path d="M167.744,53.2367347 C167.247998,52.7278886 167,51.9446765 167,50.8870748 C167,49.8693827 167.175998,48.9714325 167.528,48.1931973 C167.880002,47.4149621 168.362664,46.8163286 168.976,46.3972789 C169.589336,45.9782292 170.274663,45.7687075 171.032,45.7687075 C172.184006,45.7687075 172.983998,46.1278876 173.432,46.8462585 L173.528,46.8462585 L174.248,43 L175.656,43 L173.624,53.8204082 L172.584,53.8204082 L172.584,52.7578231 L172.488,52.7578231 C172.157332,53.1668955 171.765336,53.4761894 171.312,53.6857143 C170.858664,53.8952391 170.370669,54 169.848,54 C168.941329,54 168.240002,53.7455808 167.744,53.2367347 Z M171.792,52.3163265 C172.213335,51.9222203 172.530666,51.4058989 172.744,50.7673469 C172.957334,50.128795 173.064,49.4453551 173.064,48.7170068 C173.064,48.0984096 172.917335,47.6344687 172.624,47.3251701 C172.330665,47.0158715 171.864003,46.8612245 171.224,46.8612245 C170.349329,46.8612245 169.672002,47.2453476 169.192,48.0136054 C168.711998,48.7818633 168.472,49.7596313 168.472,50.9469388 C168.472,51.6553323 168.613332,52.1591822 168.896,52.4585034 C169.178668,52.7578246 169.62933,52.907483 170.248,52.907483 C170.856003,52.907483 171.370665,52.7104328 171.792,52.3163265 Z M179.616,53.2367347 C179.002664,52.7278886 178.696,51.9446765 178.696,50.8870748 C178.696,49.9192695 178.855998,49.0487567 179.176,48.2755102 C179.496002,47.5022637 179.99733,46.8911587 180.68,46.4421769 C181.36267,45.993195 182.215995,45.7687075 183.24,45.7687075 C184.306672,45.7687075 185.122664,45.9981836 185.688,46.4571429 C186.253336,46.9161021 186.536,47.5895647 186.536,48.477551 C186.536,48.7868496 186.493334,49.1560069 186.408,49.585034 L186.28,50.2435374 L180.184,50.2435374 C180.152,50.3832207 180.136,50.5727879 180.136,50.8122449 C180.136,51.5206385 180.319998,52.0469371 180.688,52.3911565 C181.056002,52.7353759 181.618663,52.907483 182.376,52.907483 C182.984003,52.907483 183.503998,52.7628132 183.936,52.4734694 C184.368002,52.1841255 184.637333,51.740139 184.744,51.1414966 L186.12,51.1414966 C185.959999,52.059415 185.53867,52.7653037 184.856,53.2591837 C184.17333,53.7530637 183.357338,54 182.408,54 C181.159994,54 180.229336,53.7455808 179.616,53.2367347 Z M185.048,49.1510204 C185.090667,49.0113372 185.112,48.8167813 185.112,48.5673469 C185.112,47.4299263 184.472006,46.8612245 183.192,46.8612245 C182.466663,46.8612245 181.866669,47.0582747 181.392,47.452381 C180.917331,47.8464872 180.584001,48.4126947 180.392,49.1510204 L185.048,49.1510204 Z M192.296,43 L193.704,43 L191.672,53.8204082 L190.264,53.8204082 L192.296,43 Z M198.648,43 L200.056,43 L199.784,44.4666667 L198.376,44.4666667 L198.648,43 Z M198.104,45.9482993 L199.512,45.9482993 L198.024,53.8204082 L196.616,53.8204082 L198.104,45.9482993 Z M203.544,45.9482993 L205,45.9482993 L205.752,49.8843537 C205.816,50.2535166 205.885333,50.7149632 205.96,51.2687075 C206.034667,51.8224517 206.082666,52.1841261 206.104,52.3537415 L206.184,52.3537415 C206.258667,52.1841261 206.429332,51.832429 206.696,51.2986395 C206.962668,50.7648499 207.213332,50.2934261 207.448,49.8843537 L209.656,45.9482993 L211.128,45.9482993 L206.552,53.8204082 L205.144,53.8204082 L203.544,45.9482993 Z M214.816,53.2367347 C214.202663,52.7278886 213.896,51.9446765 213.896,50.8870748 C213.896,49.9192695 214.055998,49.0487567 214.376,48.2755102 C214.696001,47.5022637 215.19733,46.8911587 215.88,46.4421769 C216.56267,45.993195 217.415995,45.7687075 218.44,45.7687075 C219.506672,45.7687075 220.322664,45.9981836 220.888,46.4571429 C221.453336,46.9161021 221.736,47.5895647 221.736,48.477551 C221.736,48.7868496 221.693334,49.1560069 221.608,49.585034 L221.48,50.2435374 L215.384,50.2435374 C215.352,50.3832207 215.336,50.5727879 215.336,50.8122449 C215.336,51.5206385 215.519998,52.0469371 215.888,52.3911565 C216.256002,52.7353759 216.818663,52.907483 217.576,52.907483 C218.184003,52.907483 218.703998,52.7628132 219.136,52.4734694 C219.568002,52.1841255 219.837333,51.740139 219.944,51.1414966 L221.32,51.1414966 C221.159999,52.059415 220.73867,52.7653037 220.056,53.2591837 C219.37333,53.7530637 218.557338,54 217.608,54 C216.359994,54 215.429336,53.7455808 214.816,53.2367347 Z M220.248,49.1510204 C220.290667,49.0113372 220.312,48.8167813 220.312,48.5673469 C220.312,47.4299263 219.672006,46.8612245 218.392,46.8612245 C217.666663,46.8612245 217.066669,47.0582747 216.592,47.452381 C216.117331,47.8464872 215.784001,48.4126947 215.592,49.1510204 L220.248,49.1510204 Z M226.952,45.9482993 L228.024,45.9482993 L227.96,47.1306122 L228.056,47.1306122 C228.610669,46.2226712 229.357328,45.7687075 230.296,45.7687075 C230.488001,45.7687075 230.650666,45.7861676 230.784,45.8210884 C230.917334,45.8560092 231,45.878458 231.032,45.8884354 L230.792,47.1605442 L230.2,47.1605442 C229.602663,47.1605442 229.074669,47.3351456 228.616,47.6843537 C228.157331,48.0335618 227.858667,48.5773206 227.72,49.3156463 L226.872,53.8204082 L225.464,53.8204082 L226.952,45.9482993 Z M235.624,43 L237.032,43 L236.76,44.4666667 L235.352,44.4666667 L235.624,43 Z M235.08,45.9482993 L236.488,45.9482993 L235,53.8204082 L233.592,53.8204082 L235.08,45.9482993 Z M240.992,53.2367347 C240.378663,52.7278886 240.072,51.9446765 240.072,50.8870748 C240.072,49.9192695 240.231998,49.0487567 240.552,48.2755102 C240.872001,47.5022637 241.37333,46.8911587 242.056,46.4421769 C242.73867,45.993195 243.591994,45.7687075 244.616,45.7687075 C245.682672,45.7687075 246.498663,45.9981836 247.064,46.4571429 C247.629336,46.9161021 247.912,47.5895647 247.912,48.477551 C247.912,48.7868496 247.869333,49.1560069 247.784,49.585034 L247.656,50.2435374 L241.56,50.2435374 C241.527999,50.3832207 241.512,50.5727879 241.512,50.8122449 C241.512,51.5206385 241.695998,52.0469371 242.064,52.3911565 C242.432001,52.7353759 242.994662,52.907483 243.752,52.907483 C244.360003,52.907483 244.879997,52.7628132 245.312,52.4734694 C245.744002,52.1841255 246.013332,51.740139 246.12,51.1414966 L247.496,51.1414966 C247.335999,52.059415 246.91467,52.7653037 246.232,53.2591837 C245.54933,53.7530637 244.733338,54 243.784,54 C242.535993,54 241.605336,53.7455808 240.992,53.2367347 Z M246.424,49.1510204 C246.466666,49.0113372 246.488,48.8167813 246.488,48.5673469 C246.488,47.4299263 245.848006,46.8612245 244.568,46.8612245 C243.842663,46.8612245 243.242669,47.0582747 242.768,47.452381 C242.293331,47.8464872 241.960001,48.4126947 241.768,49.1510204 L246.424,49.1510204 Z M252.28,53.4537415 C251.72533,53.0895673 251.448,52.6231321 251.448,52.0544218 C251.448,51.9147385 251.463999,51.7750574 251.496,51.6353741 C251.528,51.4956909 251.549333,51.4058959 251.56,51.3659864 L252.952,51.3659864 C252.909333,51.515647 252.888,51.6503395 252.888,51.770068 C252.888,52.1591856 253.053331,52.4485251 253.384,52.6380952 C253.714668,52.8276653 254.15733,52.922449 254.712,52.922449 C255.330669,52.922449 255.850664,52.8052166 256.272,52.5707483 C256.693335,52.33628 256.904,52.0195031 256.904,51.6204082 C256.904,51.3709738 256.816,51.1639464 256.64,50.9993197 C256.463999,50.8346931 256.245334,50.7049891 255.984,50.6102041 C255.722665,50.515419 255.362669,50.4031753 254.904,50.2734694 C254.359997,50.1238088 253.920001,49.9816333 253.584,49.8469388 C253.247998,49.7122442 252.962667,49.522677 252.728,49.2782313 C252.493332,49.0337856 252.376,48.7120201 252.376,48.3129252 C252.376,47.8040791 252.527998,47.3575983 252.832,46.9734694 C253.136001,46.5893405 253.551997,46.2925181 254.08,46.0829932 C254.608002,45.8734683 255.202663,45.7687075 255.864,45.7687075 C256.845338,45.7687075 257.59733,45.9383203 258.12,46.277551 C258.642669,46.6167817 258.904,47.0557796 258.904,47.5945578 C258.904,47.6943316 258.890666,47.8090696 258.864,47.9387755 C258.837333,48.0684814 258.813333,48.1582764 258.792,48.2081633 L257.416,48.2081633 C257.448,48.0884348 257.464,47.9736967 257.464,47.8639456 C257.464,47.5646244 257.341334,47.3226767 257.096,47.1380952 C256.850665,46.9535138 256.450669,46.8612245 255.896,46.8612245 C255.149329,46.8612245 254.626668,46.9834455 254.328,47.2278912 C254.029331,47.4723368 253.88,47.734239 253.88,48.0136054 C253.88,48.3129267 254.029331,48.5374142 254.328,48.6870748 C254.626668,48.8367354 255.095996,48.9913824 255.736,49.1510204 C256.312002,49.300681 256.775998,49.4453508 257.128,49.585034 C257.480001,49.7247173 257.783998,49.9292504 258.04,50.1986395 C258.296001,50.4680286 258.424,50.82222 258.424,51.2612245 C258.424,52.1591882 258.080003,52.8401337 257.392,53.3040816 C256.703996,53.7680295 255.848005,54 254.824,54 C253.682661,54 252.834669,53.8179157 252.28,53.4537415 Z" id="deliveries" fill="#2C3E50"></path>
            </g>
        </g>
    </g>
</svg>